<svg xmlns="http://www.w3.org/2000/svg" width="132" height="54" viewBox="0 0 132 54">
  <g fill="none" fill-rule="evenodd">
    <polygon fill="#FFFFFF" points="4.8 41.498 46.743 41.498 46.743 39.74 4.8 39.74"/>
    <polygon fill="#FFFFFF" points="2.426 44.487 49.029 44.487 49.029 42.729 2.426 42.729"/>
    <polygon fill="#FFFFFF" points=".228 47.478 51.315 47.478 51.315 45.719 .228 45.719"/>
    <polygon fill="#FFFFFF" points="4.8 19.328 46.743 19.328 46.743 17.571 4.8 17.571"/>
    <polyline fill="#FFFFFF" points="13.286 16.438 25.771 12.701 37.994 16.438 43.094 16.438 25.771 11.075 8.186 16.438 13.286 16.438"/>
    <polyline fill="#FFFFFF" points="4.8 16.438 25.639 10.064 46.742 16.438 46.742 14.548 25.771 8.085 4.8 14.548 4.8 16.438"/>
    <path fill="#FFFFFF" d="M7.26278049,37.4610732 C7.26278049,37.4610732 7.26278049,38.7794634 8.75678049,38.7794634 C10.2529756,38.7794634 10.1642927,37.4610732 10.1642927,37.4610732 L10.1642927,20.4023415 L9.06453659,20.4023415 L9.06453659,37.5045366 C9.06453659,37.5045366 9.06453659,37.8131707 8.66941463,37.8131707 C8.27297561,37.8131707 8.36121951,37.4176098 8.36121951,37.4176098 L8.36121951,20.4023415 L7.26278049,20.4023415 L7.26278049,37.4610732"/>
    <polyline fill="#FFFFFF" points="14.165 38.779 15.044 38.779 15.044 27.731 16.142 38.779 17.066 38.779 17.066 20.402 16.142 20.402 16.142 30.224 15.044 20.402 14.165 20.402 14.165 38.779"/>
    <polyline fill="#FFFFFF" points="21.156 38.779 23.969 38.779 23.969 37.812 22.386 37.812 22.386 29.503 23.573 29.503 23.573 28.492 22.386 28.492 22.386 21.326 23.573 21.326 23.573 20.402 21.156 20.402 21.156 38.779"/>
    <path fill="#FFFFFF" d="M37.3337561 25.8545854L37.3337561 21.7216098C37.3337561 21.7216098 37.2902927 20.4023415 35.8836585 20.4023415 34.4770244 20.4023415 34.4770244 21.7216098 34.4770244 21.7216098L34.4770244 37.4615122C34.4770244 37.4615122 34.4309268 38.7799024 35.8836585 38.7799024 37.3337561 38.7799024 37.3337561 37.4615122 37.3337561 37.4615122L37.3337561 32.8447317 36.2357561 32.8447317 36.2357561 37.4615122C36.2357561 37.4615122 36.2357561 37.8122927 35.8836585 37.8122927 35.5539512 37.8122927 35.4872195 37.4615122 35.4872195 37.4615122L35.4872195 21.7216098C35.4872195 21.7216098 35.4872195 21.3260488 35.8836585 21.3260488 36.2357561 21.3260488 36.2357561 21.7216098 36.2357561 21.7216098L36.2357561 25.8545854 37.3337561 25.8545854M44.3243415 21.7220488C44.3243415 21.7220488 44.4125854 20.4023415 42.8733659 20.4023415 41.3354634 20.4023415 41.3354634 21.7220488 41.3354634 21.7220488L41.3354634 37.4610732C41.3354634 37.4610732 41.3354634 38.7794634 42.785561 38.7794634 44.3243415 38.7794634 44.3243415 37.4610732 44.3243415 37.4610732L44.3243415 21.7220488zM43.2698049 37.4610732C43.2698049 37.4610732 43.3128293 37.8131707 42.8733659 37.8131707 42.4343415 37.8131707 42.4343415 37.4610732 42.4343415 37.4610732L42.4343415 21.7220488C42.4343415 21.7220488 42.4343415 21.3260488 42.8294634 21.3260488 43.2698049 21.3260488 43.2698049 21.7220488 43.2698049 21.7220488L43.2698049 37.4610732 43.2698049 37.4610732zM29.2890732 37.4610732C29.2890732 37.4610732 29.2890732 37.8131707 29.0023902 37.7899024 28.7165854 37.7688293 28.7165854 37.4610732 28.7165854 37.4610732L28.7165854 32.8447317 27.5738049 32.8447317 27.5738049 37.4610732C27.5738049 37.4610732 27.5303415 38.7794634 28.98 38.7794634 30.4318537 38.7794634 30.4318537 37.4610732 30.4318537 37.4610732 30.4318537 37.4610732 30.4318537 34.3835122 30.4305366 33.4848293 30.4270244 31.3279024 28.7165854 27.216878 28.7165854 25.8563415L28.7165854 21.7220488C28.7165854 21.7220488 28.6726829 21.3260488 28.98 21.3260488 29.2890732 21.3260488 29.2890732 21.7220488 29.2890732 21.7220488L29.2890732 25.8541463 30.4318537 25.8541463 30.4318537 21.7220488C30.4318537 21.7220488 30.4753171 20.358878 29.0247805 20.4023415 27.5738049 20.4466829 27.5738049 21.7220488 27.5738049 21.7220488L27.5738049 25.2386341C27.5738049 27.5470244 29.2890732 31.4372195 29.2890732 33.2183415L29.2890732 37.4610732M59.8425366 1.008C59.8425366 1.40180488 59.5211707 1.72229268 59.1282439 1.72229268 58.733122 1.72229268 58.4139512 1.40180488 58.4139512 1.008 58.4139512.613317073 58.733122.293268293 59.1282439.293268293 59.5211707.293268293 59.8425366.613317073 59.8425366 1.008M59.8425366 3.54863415C59.8425366 3.94287805 59.5211707 4.26336585 59.1282439 4.26336585 58.733122 4.26336585 58.4139512 3.94287805 58.4139512 3.54863415 58.4139512 3.15439024 58.733122 2.83390244 59.1282439 2.83390244 59.5211707 2.83390244 59.8425366 3.15439024 59.8425366 3.54863415M59.8425366 6.30307317C59.8425366 6.69687805 59.5211707 7.01736585 59.1282439 7.01736585 58.733122 7.01736585 58.4139512 6.69687805 58.4139512 6.30307317 58.4139512 5.90839024 58.733122 5.58834146 59.1282439 5.58834146 59.5211707 5.58834146 59.8425366 5.90839024 59.8425366 6.30307317M59.8425366 9.05882927C59.8425366 9.45307317 59.5211707 9.77356098 59.1282439 9.77356098 58.733122 9.77356098 58.4139512 9.45307317 58.4139512 9.05882927 58.4139512 8.66458537 58.733122 8.34409756 59.1282439 8.34409756 59.5211707 8.34409756 59.8425366 8.66458537 59.8425366 9.05882927M59.8425366 12.0261951C59.8425366 12.420439 59.5211707 12.7409268 59.1282439 12.7409268 58.733122 12.7409268 58.4139512 12.420439 58.4139512 12.0261951 58.4139512 11.6319512 58.733122 11.3114634 59.1282439 11.3114634 59.5211707 11.3114634 59.8425366 11.6319512 59.8425366 12.0261951M59.8425366 14.993122C59.8425366 15.3873659 59.5211707 15.7078537 59.1282439 15.7078537 58.733122 15.7078537 58.4139512 15.3873659 58.4139512 14.993122 58.4139512 14.5993171 58.733122 14.2783902 59.1282439 14.2783902 59.5211707 14.2783902 59.8425366 14.5993171 59.8425366 14.993122M59.8425366 18.0460976C59.8425366 18.4403415 59.5211707 18.7608293 59.1282439 18.7608293 58.733122 18.7608293 58.4139512 18.4403415 58.4139512 18.0460976 58.4139512 17.6522927 58.733122 17.3318049 59.1282439 17.3318049 59.5211707 17.3318049 59.8425366 17.6522927 59.8425366 18.0460976M59.8425366 21.0981951C59.8425366 21.492439 59.5211707 21.8129268 59.1282439 21.8129268 58.733122 21.8129268 58.4139512 21.492439 58.4139512 21.0981951 58.4139512 20.7039512 58.733122 20.3834634 59.1282439 20.3834634 59.5211707 20.3834634 59.8425366 20.7039512 59.8425366 21.0981951M59.8425366 24.4053659C59.8425366 24.7996098 59.5211707 25.1200976 59.1282439 25.1200976 58.733122 25.1200976 58.4139512 24.7996098 58.4139512 24.4053659 58.4139512 24.011122 58.733122 23.6906341 59.1282439 23.6906341 59.5211707 23.6906341 59.8425366 24.011122 59.8425366 24.4053659M59.8425366 27.7116585C59.8425366 28.1059024 59.5211707 28.4263902 59.1282439 28.4263902 58.733122 28.4263902 58.4139512 28.1059024 58.4139512 27.7116585 58.4139512 27.3174146 58.733122 26.9969268 59.1282439 26.9969268 59.5211707 26.9969268 59.8425366 27.3174146 59.8425366 27.7116585M59.8425366 31.1878537C59.8425366 31.5820976 59.5211707 31.9025854 59.1282439 31.9025854 58.733122 31.9025854 58.4139512 31.5820976 58.4139512 31.1878537 58.4139512 30.7936098 58.733122 30.473122 59.1282439 30.473122 59.5211707 30.473122 59.8425366 30.7936098 59.8425366 31.1878537M59.8425366 34.7496585C59.8425366 35.1439024 59.5211707 35.4643902 59.1282439 35.4643902 58.733122 35.4643902 58.4139512 35.1439024 58.4139512 34.7496585 58.4139512 34.3554146 58.733122 34.0344878 59.1282439 34.0344878 59.5211707 34.0344878 59.8425366 34.3554146 59.8425366 34.7496585M59.8425366 38.4800488C59.8425366 38.8742927 59.5211707 39.1947805 59.1282439 39.1947805 58.733122 39.1947805 58.4139512 38.8742927 58.4139512 38.4800488 58.4139512 38.0862439 58.733122 37.7657561 59.1282439 37.7657561 59.5211707 37.7657561 59.8425366 38.0862439 59.8425366 38.4800488M59.8425366 42.7201463C59.8425366 43.1143902 59.5211707 43.434 59.1282439 43.434 58.733122 43.434 58.4139512 43.1143902 58.4139512 42.7201463 58.4139512 42.3259024 58.733122 42.0054146 59.1282439 42.0054146 59.5211707 42.0054146 59.8425366 42.3259024 59.8425366 42.7201463M59.8425366 47.3830244C59.8425366 47.7768293 59.5211707 48.0977561 59.1282439 48.0977561 58.733122 48.0977561 58.4139512 47.7768293 58.4139512 47.3830244 58.4139512 46.9883415 58.733122 46.6678537 59.1282439 46.6678537 59.5211707 46.6678537 59.8425366 46.9883415 59.8425366 47.3830244M59.8425366 52.8940976C59.8425366 53.2879024 59.5211707 53.6088293 59.1282439 53.6088293 58.733122 53.6088293 58.4139512 53.2879024 58.4139512 52.8940976 58.4139512 52.4998537 58.733122 52.1793659 59.1282439 52.1793659 59.5211707 52.1793659 59.8425366 52.4998537 59.8425366 52.8940976M75.077561 41.8974146C74.9001951 41.4215122 74.6503902 41.0184878 74.3356098 40.6997561 74.0203902 40.3810244 73.6410732 40.1382439 73.2095122 39.978 72.7805854 39.8199512 72.3125854 39.7396098 71.8182439 39.7396098L68.4614634 39.7396098 68.4614634 47.4778537 71.8182439 47.4778537C72.4069756 47.4778537 72.9267805 47.3777561 73.3644878 47.178439 73.8017561 46.98 74.1731707 46.7020976 74.4681951 46.3535122 74.7605854 46.007122 74.9827317 45.5896098 75.1271707 45.1132683 75.2698537 44.640878 75.3422927 44.1210732 75.3422927 43.5670244 75.3422927 42.9339512 75.2531707 42.372439 75.077561 41.8974146M73.4461463 43.7241951C73.4461463 44.1206341 73.3956585 44.4586829 73.296 44.73 73.1980976 44.9986829 73.0668293 45.2181951 72.9048293 45.3841463 72.7432683 45.5479024 72.558 45.665561 72.3547317 45.7362439 72.1453171 45.8082439 71.9258049 45.8446829 71.7023415 45.8446829L70.3584878 45.8446829 70.3584878 41.3732195 71.4086341 41.3732195C71.7954146 41.3732195 72.1238049 41.4280976 72.3837073 41.5365366 72.6383415 41.6432195 72.846 41.7981951 72.9996585 41.9961951 73.1559512 42.1985854 73.2705366 42.4453171 73.3394634 42.731122 73.4101463 43.0230732 73.4461463 43.3567317 73.4461463 43.7241951"/>
    <polyline fill="#FFFFFF" points="80.903 45.844 80.903 44.258 84.534 44.258 84.534 42.729 80.903 42.729 80.903 41.374 84.86 41.374 84.86 39.74 79.007 39.74 79.007 47.478 84.943 47.478 84.943 45.844 80.903 45.844"/>
    <polyline fill="#FFFFFF" points="90.473 45.844 90.473 39.74 88.577 39.74 88.577 47.478 94.124 47.478 94.124 45.844 90.473 45.844"/>
    <polyline fill="#FFFFFF" points="103 41.374 103 39.74 97.484 39.74 97.484 47.478 99.381 47.478 99.381 44.384 102.518 44.384 102.518 42.855 99.381 42.855 99.381 41.374 103 41.374"/>
    <polyline fill="#FFFFFF" points="105.922 39.74 105.922 41.373 108.167 41.373 108.167 47.478 110.063 47.478 110.063 41.373 112.308 41.373 112.308 39.74 105.922 39.74"/>
    <polygon fill="#00A3DB" points="116.861 47.48 131.478 47.48 131.478 32.861 116.861 32.861"/>
    <path fill="#FFFFFF" d="M68.4614634,35.7861951 L72.018439,35.7861951 L72.018439,16.4379512 L68.4614634,16.4379512 L68.4614634,35.7861951 Z M76.5706829,35.7861951 L80.1276585,35.7861951 L80.1276585,27.0605854 L89.3748293,27.0605854 L89.3748293,35.7861951 L92.9318049,35.7861951 L92.9318049,16.4379512 L89.3748293,16.4379512 L89.3748293,24.1340488 L80.1276585,24.1340488 L80.1276585,16.4379512 L76.5706829,16.4379512 L76.5706829,35.7861951 Z M97.4840488,35.7861951 L112.307707,35.7861951 L112.307707,32.8596585 L101.040146,32.8596585 L101.040146,27.1962439 L111.283463,27.1962439 L111.283463,24.4321463 L101.040146,24.4321463 L101.040146,19.3649268 L112.10839,19.3649268 L112.10839,16.4379512 L97.4840488,16.4379512 L97.4840488,35.7861951 L97.4840488,35.7861951 Z"/>
  </g>
</svg>
